# xmcd CD database file
# Copyright (C) 1993-1998 Ti Kan
# 
# Track frame offsets:
#     182
#     10232
#     20085
#     31082
#     42350
#     52730
#     61912
#     71015
#     81800
#     92025
#     104512
#     115067
# 
# Disc length: 1688 seconds
# 
# Revision: 1
# Processed by: cddbd v1.4b41PL1 Copyright (c) Steve Scherf et al.
# Submitted via: DiscPlay 4.0.4
# 
DISCID=9206960c
DTITLE=Conway Twitty - It's Only Make Believe
DYEAR=1900
DGENRE=
TTITLE0=It's Only Make Believe
TTITLE1=Goin' Home
TTITLE2=Hey Miss Ruby
TTITLE3=Heavenly
TTITLE4=The Story Of My Love
TTITLE5=I Vibrate From My Head To My Feet
TTITLE6=Huggin' And A Kissin'
TTITLE7=My One And Only You
TTITLE8=Lonely Blue Boy
TTITLE9=Danny Boy
TTITLE10=You Win Again
TTITLE11=Blueberry Hill
EXTD=
EXTT0=
EXTT1=
EXTT2=
EXTT3=
EXTT4=
EXTT5=
EXTT6=
EXTT7=
EXTT8=
EXTT9=
EXTT10=
EXTT11=
PLAYORDER=
